<svg width="113" height="38" viewBox="0 0 113 38" fill="none" xmlns="http://www.w3.org/2000/svg">
<path d="M0.34259 0.934289V1.29062C3.40603 1.29062 3.61983 3.81904 3.61983 10.8352V26.6471C3.61983 33.6623 3.40603 36.1907 0.34259 36.1907V36.547H9.95844V36.1907C6.89604 36.1907 3.97513 33.6272 3.97513 23.2635V18.7407L4.01128 3.46271C9.42446 15.073 12.6294 21.9817 18.2202 33.9473H18.5414C22.9218 22.1955 26.5182 12.402 30.3645 2.10967V26.6471C30.3645 33.6623 30.1507 36.1907 27.0883 36.1907V36.547H36.7031V36.1907C33.6407 36.1907 33.4269 33.6623 33.4269 26.6471V10.8352C33.4269 3.81904 33.6407 1.29062 36.7031 1.29062V0.934289H30.4358L19.7519 29.6383L6.07698 0.934289H0.34259Z" fill="#292929"/>
<path d="M40.2574 1.29062C43.3209 1.29062 43.5347 3.81904 43.5347 10.8352V26.6471C43.5347 33.6623 43.3209 36.1907 40.2574 36.1907V36.547H49.8733V36.1907C46.8109 36.1907 46.5971 33.6623 46.5971 26.6471V10.8352C46.5971 3.81904 46.8109 1.29062 49.8733 1.29062V0.934289H40.2574V1.29062Z" fill="#292929"/>
<path d="M53.432 0.934289V1.29062C56.4955 1.29062 56.7093 3.81904 56.7093 10.8352V26.6471C56.7093 33.6623 56.4955 36.1907 53.432 36.1907V36.547H78.8949V30.6711H78.5396C78.5396 35.7992 67.6771 36.1907 64.2945 36.1907H59.7717V10.8352C59.7717 3.81904 59.9855 1.29062 63.0479 1.29062V0.934289H53.432Z" fill="#292929"/>
<path d="M82.4514 30.3148C82.4514 34.0186 84.8022 37.2597 88.9336 37.2597C96.02 37.2597 100.186 30.9913 100.186 22.3381C100.186 20.6287 100.115 19.2034 99.9727 18.0641L104.389 29.7095C105.742 33.3059 105.921 36.1907 100.899 36.1907V36.547H112.58V36.1907C110.408 36.1907 109.268 34.2324 107.702 30.3148L96.305 0.222656H95.9487C93.7053 6.13367 92.3874 9.65982 90.2153 15.3932C89.859 16.3186 90.0377 17.2802 91.0344 17.2802C93.0639 17.2802 94.1329 13.5413 95.8423 13.5413C96.305 13.5413 96.6965 13.8263 96.6965 14.5029C96.6965 18.2067 82.4514 21.5541 82.4514 30.3148ZM85.4787 29.6383C85.4787 20.8415 97.089 19.3459 97.089 14.5741C97.089 13.6477 96.5901 13.1849 95.9136 13.1849C94.0255 13.1849 92.7086 16.9249 91.0705 16.9249C90.5004 16.9249 90.2153 16.4973 90.678 15.2507L94.7733 4.35303L99.0824 15.7134C99.7238 17.8152 99.8312 19.7735 99.8312 22.4093C99.8312 28.2491 97.0177 35.5503 91.0705 35.5503C87.5795 35.5503 85.4787 32.9858 85.4787 29.6383Z" fill="#292929"/>
</svg>
