<svg width="91" height="48" viewBox="0 0 91 48" fill="none" xmlns="http://www.w3.org/2000/svg">
<path d="M73.2745 26.0156C73.8212 25.8941 74.4134 25.7271 75.0513 25.5145C75.7195 25.3018 76.3421 24.9829 76.9192 24.5577C77.4963 24.1325 77.9822 23.5706 78.3771 22.872C78.7719 22.1431 78.9694 21.2319 78.9694 20.1385C78.9694 19.1665 78.8175 18.3009 78.5138 17.5416C78.21 16.7823 77.7848 16.1445 77.2381 15.6281C76.6914 15.0814 76.0536 14.6714 75.3246 14.398C74.5957 14.1247 73.806 13.988 72.9556 13.988C72.1051 13.988 71.3002 14.1247 70.5409 14.398C69.812 14.641 69.1741 14.9903 68.6274 15.4459C68.0807 15.9015 67.6403 16.433 67.3062 17.0405C67.0025 17.6175 66.8354 18.225 66.8051 18.8628C67.0784 17.9516 67.6251 17.1771 68.4452 16.5393C69.2653 15.9015 70.1613 15.5826 71.1332 15.5826C71.7406 15.5826 72.3177 15.7041 72.8644 15.947C73.4111 16.1596 73.8819 16.4786 74.2768 16.9038C74.6716 17.2986 74.9753 17.7846 75.188 18.3617C75.4309 18.9084 75.5221 19.5006 75.4613 20.1385C75.4309 20.7156 75.2791 21.2623 75.0057 21.7786C74.7627 22.2646 74.4286 22.705 74.0034 23.0998C73.5782 23.4947 73.0922 23.8136 72.5455 24.0566C72.0292 24.2692 71.4825 24.3907 70.9054 24.421C70.2676 24.4514 69.6601 24.3299 69.083 24.0566C68.5059 23.7832 68.0048 23.4035 67.5796 22.9176C67.1847 22.4316 66.8658 21.8849 66.6228 21.2775C66.3799 20.67 66.2584 20.0322 66.2584 19.364C66.2584 18.4528 66.4558 17.6175 66.8506 16.8582C67.2455 16.0989 67.8377 15.4307 68.6274 14.8536C69.4475 14.2765 70.4498 13.8361 71.6343 13.5324C72.8189 13.1983 74.1857 13.0312 75.7347 13.0312C79.835 13.0312 82.8115 14.0943 84.6643 16.2204C86.517 18.3161 87.4434 21.3989 87.4434 25.4689L87.3978 32.3939C87.3978 33.1532 87.4737 33.7607 87.6256 34.2162C87.8078 34.6415 88.0204 34.9756 88.2634 35.2186C88.5064 35.4312 88.7798 35.583 89.0835 35.6741C89.3872 35.7349 89.6758 35.7956 89.9491 35.8564L89.9036 36.312H81.5662C80.7462 36.312 80.078 36.0386 79.5616 35.4919C79.0453 34.9452 78.7871 34.2618 78.7871 33.4417C78.6049 34.0188 78.2404 34.5352 77.6937 34.9908C77.1774 35.4463 76.5547 35.826 75.8258 36.1297C75.1272 36.4335 74.3831 36.6613 73.5934 36.8131C72.8341 36.965 72.1203 37.0409 71.4521 37.0409C70.6017 37.0409 69.7968 36.9194 69.0375 36.6764C68.2782 36.4638 67.6099 36.1297 67.0329 35.6741C66.4558 35.1882 65.985 34.6111 65.6205 33.9429C65.2864 33.2747 65.1194 32.5154 65.1194 31.6649C65.1194 30.693 65.2864 29.9185 65.6205 29.3414C65.9546 28.734 66.4558 28.2328 67.124 27.838C67.7922 27.4431 68.6426 27.109 69.6753 26.8357C70.708 26.5623 71.9077 26.289 73.2745 26.0156ZM76.0536 35.1274C76.4788 35.1274 76.8433 35.0211 77.147 34.8085C77.4811 34.5655 77.7545 34.2922 77.9671 33.9885C78.21 33.6847 78.3923 33.3962 78.5138 33.1228C78.6353 32.8191 78.7112 32.6065 78.7416 32.485V23.1454C78.529 23.6313 78.1797 24.0869 77.6937 24.5122C77.2077 24.9374 76.6307 25.3626 75.9625 25.7878C75.112 26.3041 74.5046 27.0938 74.1401 28.1569C73.806 29.1896 73.6541 30.2222 73.6845 31.2549C73.7452 32.2876 73.973 33.1988 74.3679 33.9885C74.7931 34.7478 75.355 35.1274 76.0536 35.1274Z" fill="#171614"/>
<path d="M51.4587 35.855C51.7321 35.7943 52.0055 35.7336 52.2788 35.6728C52.5825 35.5817 52.8559 35.4298 53.0989 35.2172C53.3419 34.9742 53.5393 34.6401 53.6911 34.2149C53.8734 33.7593 53.9645 33.1519 53.9645 32.3926V3.96365C53.9645 3.62955 53.8734 3.37138 53.6911 3.18914C53.5089 3.0069 53.2811 2.87023 53.0078 2.77911C52.7648 2.68799 52.5066 2.62725 52.2332 2.59687C51.9599 2.5665 51.7169 2.55131 51.5043 2.55131V2.09572C53.3874 1.91348 55.149 1.6705 56.7892 1.36678C58.4597 1.06305 60.2517 0.607456 62.1651 0H62.6207V32.3926C62.6207 33.1519 62.6967 33.7593 62.8485 34.2149C63.0308 34.6401 63.2434 34.9742 63.4864 35.2172C63.7293 35.4298 63.9875 35.5817 64.2609 35.6728C64.5646 35.7336 64.8531 35.7943 65.1265 35.855V36.3106H51.4587V35.855Z" fill="#171614"/>
<path d="M49.4157 13.4842V32.3913C49.4157 33.1506 49.4916 33.7581 49.6434 34.2136C49.8257 34.6389 50.0383 34.973 50.2813 35.2159C50.5243 35.4286 50.7824 35.5804 51.0558 35.6715C51.3595 35.7323 51.6481 35.793 51.9214 35.8538V36.3094H38.2537V35.8538C38.527 35.793 38.8004 35.7323 39.0737 35.6715C39.3775 35.5804 39.6508 35.4286 39.8938 35.2159C40.1368 34.973 40.3342 34.6389 40.4861 34.2136C40.6683 33.7581 40.7594 33.1506 40.7594 32.3913V17.4479C40.7594 17.1138 40.6683 16.8556 40.4861 16.6734C40.3038 16.4911 40.076 16.3545 39.8027 16.2633C39.5597 16.1722 39.3015 16.1115 39.0282 16.0811C38.7548 16.0507 38.5118 16.0356 38.2992 16.0356V15.58C40.1823 15.3977 41.944 15.1547 43.5841 14.851C45.2546 14.5473 47.0466 14.0917 48.9601 13.4842H49.4157ZM44.5864 13.4387C43.6145 13.4387 42.7944 13.2261 42.1262 12.8009C41.4884 12.3453 41.0024 11.7834 40.6683 11.1152C40.3342 10.447 40.1671 9.71802 40.1671 8.92833C40.1671 8.13863 40.3342 7.40969 40.6683 6.74149C41.0024 6.07329 41.4884 5.52658 42.1262 5.10136C42.7944 4.64576 43.6145 4.41797 44.5864 4.41797C45.5887 4.41797 46.4087 4.64576 47.0466 5.10136C47.7148 5.52658 48.2159 6.07329 48.55 6.74149C48.8841 7.40969 49.0512 8.13863 49.0512 8.92833C49.0512 9.71802 48.8841 10.447 48.55 11.1152C48.2159 11.7834 47.7148 12.3453 47.0466 12.8009C46.3784 13.2261 45.5583 13.4387 44.5864 13.4387Z" fill="#171614"/>
<path d="M0 4.41797H11.8454L20.1827 27.0153L27.0621 4.41797H38.7253V4.87356C38.4519 4.90393 38.1634 4.96468 37.8596 5.0558C37.5863 5.14692 37.3281 5.31397 37.0851 5.55695C36.8422 5.79993 36.6296 6.14922 36.4473 6.60481C36.2955 7.0604 36.2195 7.68304 36.2195 8.47273V32.3913C36.2195 33.1506 36.2955 33.7581 36.4473 34.2136C36.6296 34.6389 36.8422 34.973 37.0851 35.2159C37.3281 35.4286 37.5863 35.5804 37.8596 35.6715C38.1634 35.7323 38.4519 35.793 38.7253 35.8538V36.3094H24.6019V35.8538C24.8753 35.793 25.1486 35.7323 25.422 35.6715C25.7257 35.5804 25.9991 35.4286 26.2421 35.2159C26.485 34.973 26.6825 34.6389 26.8343 34.2136C27.0166 33.7581 27.1077 33.1506 27.1077 32.3913V6.42257L18.0414 36.3094H13.8955L3.18914 7.37931V32.3913C3.18914 33.1506 3.26507 33.7581 3.41694 34.2136C3.59917 34.6389 3.81178 34.973 4.05476 35.2159C4.29775 35.4286 4.55591 35.5804 4.82927 35.6715C5.133 35.7323 5.42154 35.793 5.69489 35.8538V36.3094H0.0455592V35.8538C0.318914 35.793 0.592269 35.7323 0.865624 35.6715C1.16935 35.5804 1.44271 35.4286 1.68569 35.2159C1.92867 34.973 2.12609 34.6389 2.27796 34.2136C2.46019 33.7581 2.55131 33.1506 2.55131 32.3913V7.33375C2.55131 6.57444 2.29314 5.99735 1.77681 5.60251C1.29084 5.17729 0.698574 4.93431 0 4.87356V4.41797Z" fill="#171614"/>
<path d="M87.7499 47.732H88.8137C89.5051 47.732 90.2072 47.5086 90.6008 46.4129H90.7072L90.3668 47.8915H86.2075V47.7851C86.4841 47.7426 86.633 47.5724 86.633 47.1469V41.1899C86.633 40.7644 86.4841 40.5942 86.2075 40.5517V40.4453H90.3668L90.7072 41.9239H90.6008C90.2072 40.8283 89.5051 40.6049 88.8137 40.6049H87.7499C87.5266 40.6049 87.3776 40.7538 87.3776 40.9772V43.5834H88.218C88.9094 43.5834 89.186 43.4132 89.3456 42.7855H89.4519V44.5407H89.3456C89.186 43.9131 88.9094 43.7429 88.218 43.7429H87.3776V47.3596C87.3776 47.583 87.5266 47.732 87.7499 47.732Z" fill="#171614"/>
<path d="M81.9008 46.8278C81.8051 47.1363 81.7732 47.4767 81.9221 47.8915H81.1349L78.9436 41.1261C78.7947 40.7432 78.6777 40.6049 78.4011 40.5517V40.4453H79.9329V40.5517C79.667 40.6049 79.6351 40.7538 79.7308 41.1155L81.6562 47.0724L83.4965 41.3814H83.5071C83.6667 40.8283 83.6241 40.6261 83.2731 40.5517V40.4453H84.3475V40.5517C83.9964 40.6261 83.8688 40.8283 83.6773 41.3601L81.9008 46.8278Z" fill="#171614"/>
<path d="M74.9443 47.8915V47.7851C75.2209 47.7426 75.3698 47.5724 75.3698 47.1469V41.1899C75.3698 40.7644 75.2209 40.5942 74.9443 40.5517V40.4453H76.54V40.5517C76.2634 40.5942 76.1145 40.7644 76.1145 41.1899V47.1469C76.1145 47.5724 76.2634 47.7426 76.54 47.7851V47.8915H74.9443Z" fill="#171614"/>
<path d="M72.6401 40.4453L72.9805 41.9239H72.8741C72.4805 40.8283 71.7785 40.6049 71.087 40.6049H70.8743V47.1469C70.8743 47.5724 71.0232 47.7426 71.2998 47.7851V47.8915H69.7042V47.7851C69.9807 47.7426 70.1296 47.5724 70.1296 47.1469V40.6049H69.9169C69.2255 40.6049 68.5234 40.8283 68.1298 41.9239H68.0234L68.3638 40.4453H72.6401Z" fill="#171614"/>
<path d="M65.8978 41.0206L65.9829 42.0844H65.8765C65.5149 40.9994 64.5894 40.4994 63.7491 40.4994C62.2705 40.4994 61.2067 42.0206 61.2067 43.9566C61.2067 46.1053 62.5258 47.4988 64.249 47.4988C65.1 47.4988 65.7063 47.1584 66.2169 46.4776L66.3127 46.5308C65.8021 47.435 64.8873 47.9988 63.8022 47.9988C61.7386 47.9988 60.3557 45.9883 60.3557 44.0629C60.3557 42.0418 61.8769 40.3398 63.8873 40.3398C64.6532 40.3398 65.3234 40.5845 65.8978 41.0206Z" fill="#171614"/>
<path d="M55.8107 47.732H56.8745C57.5659 47.732 58.268 47.5086 58.6616 46.4129H58.7679L58.4276 47.8915H54.2683V47.7851C54.5449 47.7426 54.6938 47.5724 54.6938 47.1469V41.1899C54.6938 40.7644 54.5449 40.5942 54.2683 40.5517V40.4453H58.4276L58.7679 41.9239H58.6616C58.268 40.8283 57.5659 40.6049 56.8745 40.6049H55.8107C55.5874 40.6049 55.4384 40.7538 55.4384 40.9772V43.5834H56.2788C56.9702 43.5834 57.2468 43.4132 57.4064 42.7855H57.5127V44.5407H57.4064C57.2468 43.9131 56.9702 43.7429 56.2788 43.7429H55.4384V47.3596C55.4384 47.583 55.5874 47.732 55.8107 47.732Z" fill="#171614"/>
<path d="M49.2338 47.732H50.404C51.0954 47.732 51.7975 47.5086 52.191 46.4129H52.2974L51.957 47.8915H47.6914V47.7851C47.968 47.7426 48.1169 47.5724 48.1169 47.1469V41.1899C48.1169 40.7644 47.968 40.5942 47.6914 40.5517V40.4453H49.287V40.5517C49.0104 40.5942 48.8615 40.7644 48.8615 41.1899V47.3596C48.8615 47.583 49.0104 47.732 49.2338 47.732Z" fill="#171614"/>
<path d="M42.6569 47.732H43.827C44.5185 47.732 45.2206 47.5086 45.6141 46.4129H45.7205L45.3801 47.8915H41.1145V47.7851C41.3911 47.7426 41.54 47.5724 41.54 47.1469V41.1899C41.54 40.7644 41.3911 40.5942 41.1145 40.5517V40.4453H42.7101V40.5517C42.4335 40.5942 42.2846 40.7644 42.2846 41.1899V47.3596C42.2846 47.583 42.4335 47.732 42.6569 47.732Z" fill="#171614"/>
<path d="M32.4482 44.148C32.4482 42.0418 33.98 40.3398 35.8203 40.3398C37.7031 40.3398 39.1498 42.0312 39.1498 44.1587C39.1498 46.3074 37.7031 47.9988 35.8522 47.9988C34.0013 47.9988 32.4482 46.2543 32.4482 44.148ZM33.2992 44.148C33.2992 46.2862 34.363 47.8392 35.8203 47.8392C37.2776 47.8392 38.2988 46.3287 38.2988 44.1587C38.2988 42.0099 37.2776 40.4994 35.8203 40.4994C34.363 40.4994 33.2992 42.0206 33.2992 44.148Z" fill="#171614"/>
<path d="M30.4369 41.0206L30.522 42.0844H30.4156C30.0539 40.9994 29.1285 40.4994 28.2881 40.4994C26.8095 40.4994 25.7458 42.0206 25.7458 43.9566C25.7458 46.1053 27.0648 47.4988 28.7881 47.4988C29.6391 47.4988 30.2454 47.1584 30.756 46.4776L30.8517 46.5308C30.3411 47.435 29.4263 47.9988 28.3413 47.9988C26.2776 47.9988 24.8948 45.9883 24.8948 44.0629C24.8948 42.0418 26.4159 40.3398 28.4264 40.3398C29.1923 40.3398 29.8625 40.5845 30.4369 41.0206Z" fill="#171614"/>
</svg>
