<svg width="82" height="20" viewBox="0 0 82 20" fill="none" xmlns="http://www.w3.org/2000/svg">
<g clip-path="url(#clip0_2354_3342)">
<path d="M81.3855 6.777C81.3855 6.777 81.511 0 73.2543 0C68.3748 0 64.5391 3.76 64.5391 10C64.5391 17.107 69.043 20 73.4629 20C79.5927 20 81.177 14.256 81.177 14.256H80.4268C80.4268 14.256 78.716 16.86 74.9227 16.86C71.7945 16.86 69.0005 13.843 69.0005 9.339C69.0005 3.636 71.1689 1.653 73.4214 1.653C78.1328 1.653 77.3412 6.777 77.3412 6.777H81.3855ZM39.2284 7.025C39.2284 4.463 38.6028 0.041 31.8059 0.041C23.9663 0.041 23.8823 5.165 23.8823 5.165L28.2607 5.124C28.2607 5.124 27.469 1.529 31.2633 1.529C33.8903 1.529 35.1001 3.595 35.1001 7.645V8.885C33.8903 8.14 32.3465 7.645 30.5546 7.645C25.8006 7.645 22.798 10.207 22.798 13.843C22.798 17.603 25.6336 19.959 29.4289 19.959C32.7646 19.959 34.7235 17.645 35.7662 15.744H35.9747C35.9747 17.769 36.4343 19.546 36.4343 19.546H39.853C39.853 19.546 39.2274 17.727 39.2274 14.628L39.2284 7.025ZM30.7632 17.149C28.5107 17.149 26.7593 15.744 26.7593 13.554C26.7593 11.322 28.4702 9.669 31.2218 9.669C33.1817 9.669 34.4329 10.289 35.4746 11.281L35.5161 13.801C34.7245 15.083 33.1402 17.149 30.7632 17.149ZM0.614502 0.496C1.15611 10.041 0.614502 19.586 0.614502 19.586H4.90988C4.90988 19.586 4.36727 10.041 4.90988 0.496H0.614502ZM57.3251 0.496C57.8677 10.041 57.3251 19.586 57.3251 19.586H61.6205C61.6205 19.586 61.0779 10.041 61.6205 0.496H57.3251ZM21.9639 2.975L21.5468 0.495H7.24435L6.82727 2.975C7.9945 2.769 10.5385 2.645 12.3314 2.562C12.707 11.364 12.2484 19.587 12.2484 19.587H16.5427C16.5427 19.587 16.0842 11.364 16.4597 2.562C18.2526 2.645 20.7966 2.81 21.9639 2.975ZM47.5256 17.603C47.151 8.76 47.6106 0.496 47.6106 0.496H43.3152C43.3152 0.496 43.8568 10.041 43.3152 19.586H54.7821L55.1992 15.95H54.9076C52.4881 17.52 48.5278 17.603 47.5276 17.603H47.5256Z" fill="#A4866B"/>
</g>
<defs>
<clipPath id="clip0_2354_3342">
<rect width="82" height="20" fill="white"/>
</clipPath>
</defs>
</svg>
