<svg width="136" height="20" viewBox="0 0 136 20" fill="none" xmlns="http://www.w3.org/2000/svg">
<g clip-path="url(#clip0_2354_3395)">
<path fill-rule="evenodd" clip-rule="evenodd" d="M6.31069 9.83611C8.16351 9.83611 9.34349 8.99346 9.34349 6.95115C9.34349 4.8833 8.10932 4.09579 6.31069 4.09579H3.75962V9.83611H6.31069ZM0 0.746094H6.41549C10.1468 0.746094 13.2075 2.62367 13.2075 6.95122C13.2075 11.2794 10.12 13.1857 6.41549 13.1857H3.75714V19.2565H0V0.746094Z" fill="#A4866B"/>
<path fill-rule="evenodd" clip-rule="evenodd" d="M18.7256 0.746094H30.8046V4.09586H22.4827V8.34004H29.8121V11.6057H22.4827V15.9078H31.1817V19.2565H18.7256V0.746094Z" fill="#A4866B"/>
<path fill-rule="evenodd" clip-rule="evenodd" d="M37.5049 0.746094H41.2629V15.9078H49.5317V19.2565H37.5049V0.746094Z" fill="#A4866B"/>
<path fill-rule="evenodd" clip-rule="evenodd" d="M68.7597 9.99942C68.7597 6.54366 66.5049 3.90276 63.1767 3.90276C59.8467 3.90276 57.5929 6.54366 57.5929 9.99942C57.5929 13.4568 59.8467 16.0979 63.1767 16.0979C66.5049 16.0979 68.7597 13.4568 68.7597 9.99942ZM53.7244 9.99931C53.7244 4.52972 57.9119 0.5 63.1737 0.5C68.4347 0.5 72.6212 4.52972 72.6212 9.99931C72.6212 15.4707 68.4347 19.5 63.1737 19.5C57.9119 19.5 53.7244 15.4707 53.7244 9.99931Z" fill="#A4866B"/>
<path fill-rule="evenodd" clip-rule="evenodd" d="M81.889 4.09586H76.6816V0.746094H90.8556V4.09586H85.6481V19.2565H81.889V4.09586Z" fill="#A4866B"/>
<path fill-rule="evenodd" clip-rule="evenodd" d="M109.917 9.99942C109.917 6.54366 107.662 3.90276 104.334 3.90276C101.004 3.90276 98.7484 6.54366 98.7484 9.99942C98.7484 13.4568 101.004 16.0979 104.334 16.0979C107.662 16.0979 109.917 13.4568 109.917 9.99942ZM94.8799 9.99931C94.8799 4.52972 99.0681 0.5 104.33 0.5C109.592 0.5 113.779 4.52972 113.779 9.99931C113.779 15.4707 109.592 19.5 104.33 19.5C99.0681 19.5 94.8799 15.4707 94.8799 9.99931Z" fill="#A4866B"/>
<path fill-rule="evenodd" clip-rule="evenodd" d="M125.257 10.6526C124.346 9.78176 123.084 8.12111 123.084 8.12111C123.084 8.12111 123.352 10.1625 123.352 11.496V19.2555H119.836V0.581177H120.21L129.419 9.3479C130.304 10.1905 131.566 11.8767 131.566 11.8767C131.566 11.8767 131.325 9.78176 131.325 8.50345V0.745231H134.84V19.4178H134.467L125.257 10.6526Z" fill="#A4866B"/>
</g>
<defs>
<clipPath id="clip0_2354_3395">
<rect width="136" height="19" fill="white" transform="translate(0 0.5)"/>
</clipPath>
</defs>
</svg>
