<svg width="178" height="14" viewBox="0 0 178 14" fill="none" xmlns="http://www.w3.org/2000/svg">
<g clip-path="url(#clip0_2354_3393)">
<path d="M172.443 6.83468H169.127V2.15051H172.558C174.158 2.19251 175.325 3.10135 175.329 4.58885C175.311 5.89843 174.449 6.79735 172.442 6.83468H172.443ZM177.841 12.1914C176.846 10.8848 175.359 8.94926 174.71 8.10226C176.17 7.48568 177.186 6.25018 177.186 4.5556C177.182 2.3751 175.358 0.457679 172.597 0.457679H167.764L167.729 0.449512C167.547 0.449512 167.208 0.782012 167.208 1.02818C167.202 1.23643 167.202 12.3285 167.208 12.5828C167.212 12.6721 167.194 12.7683 167.307 12.9445C167.453 13.1382 167.669 13.1487 167.764 13.1487H168.569C168.613 13.1487 168.784 13.1615 168.992 12.9603C169.144 12.7876 169.119 12.6803 169.127 12.5828V8.49076H172.728L176.003 12.857C176.088 12.9958 176.387 13.1487 176.602 13.1487H177.387C177.444 13.1487 178.005 13.0046 178.005 12.6435C178.023 12.4726 177.891 12.2468 177.84 12.1914H177.841ZM161.991 12.0963C161.979 11.9931 162.048 11.898 161.867 11.6209C161.663 11.4541 161.531 11.4541 161.427 11.4541C161.416 11.4541 161.381 11.4681 161.35 11.4541H154.545V7.54985H161.222C161.627 7.54985 161.788 7.00035 161.788 6.85218V6.49051C161.788 6.40301 161.608 5.84885 161.222 5.84885H154.563V2.15285H161.298C161.391 2.16022 161.486 2.14458 161.572 2.10732C161.658 2.07006 161.734 2.01234 161.792 1.93935C161.915 1.73285 161.905 1.6261 161.91 1.50885V1.06551C161.877 0.962262 161.932 0.839179 161.788 0.616346C161.589 0.458846 161.428 0.458846 161.334 0.458846H153.118C153.067 0.449512 152.972 0.449512 152.81 0.556262C152.599 0.752262 152.668 0.912096 152.659 0.941262V12.5064C152.668 12.6196 152.608 12.7263 152.746 12.9089C152.888 13.1166 153.101 13.1481 153.212 13.1481H161.428C161.505 13.1481 161.628 13.1522 161.834 12.9953C162.042 12.7678 161.985 12.6429 161.991 12.5362V12.0963ZM143.147 5.77768L147.32 1.3111C147.388 1.22768 147.459 1.13026 147.459 1.00485C147.429 0.663012 147.166 0.458262 146.85 0.458262H146.079C145.819 0.432012 145.553 0.611679 145.479 0.662429L139.203 7.47285V1.05035C139.203 0.962846 139.217 0.839179 139.078 0.637929C138.922 0.462929 138.705 0.458262 138.61 0.458262H137.891C137.802 0.458262 137.632 0.458262 137.444 0.606429C137.291 0.769762 137.295 0.934846 137.295 1.0276C137.291 1.18976 137.291 12.4633 137.295 12.5928C137.295 12.6838 137.295 12.8564 137.451 12.9848C137.603 13.1236 137.786 13.1481 137.915 13.1481H138.559C138.671 13.1376 138.812 13.1522 139.033 13.0139C139.217 12.8424 139.202 12.661 139.202 12.5928V9.99576L141.807 7.18993L146.248 12.787C146.417 12.9177 146.472 13.0688 146.948 13.1487H147.793C147.988 13.1487 148.385 12.9603 148.385 12.6488C148.387 12.5183 148.34 12.3916 148.253 12.2929L143.147 5.7771V5.77768ZM126.89 6.83468H123.551V2.15051H126.975C128.578 2.19251 129.767 3.10135 129.78 4.58885C129.762 5.89843 128.897 6.79735 126.89 6.83468ZM129.153 8.10226C130.61 7.48568 131.637 6.25018 131.631 4.5556C131.631 2.3751 129.824 0.457679 127.018 0.457679H122.2L122.183 0.448929C122.005 0.448929 121.659 0.781429 121.659 1.0276V12.5828C121.663 12.6721 121.635 12.7683 121.767 12.9445C121.912 13.1382 122.129 13.1487 122.2 13.1487H122.997C123.03 13.1487 123.226 13.1615 123.424 12.9603C123.584 12.7876 123.552 12.6803 123.552 12.5828V8.49076H127.171L130.464 12.857C130.53 12.9958 130.827 13.1487 131.053 13.1487H131.806C131.887 13.1487 132.448 13.0046 132.448 12.6435C132.456 12.4726 132.328 12.2468 132.278 12.1914C131.275 10.8848 129.819 8.94926 129.153 8.10226ZM108.277 8.63426C108.859 7.52885 110.13 5.05085 110.979 3.30085C110.989 3.29501 110.994 3.29151 110.994 3.28568C111.011 3.29501 111.016 3.30026 111.03 3.31601C111.898 5.04618 113.144 7.52768 113.694 8.63368L108.277 8.63426ZM111.539 0.500846C111.539 0.490346 111.351 0.139179 110.994 0.153762C110.655 0.139762 110.48 0.500846 110.48 0.500846C109.284 2.70876 105.036 11.0008 104.363 12.3285C104.305 12.3892 104.26 12.4726 104.26 12.6727C104.305 13.1487 104.806 13.1487 104.902 13.1487H105.536C105.842 13.1988 106.214 12.8716 106.226 12.7415L107.491 10.2868H114.516L115.792 12.7911C115.805 12.9037 116.13 13.1528 116.338 13.1528C116.347 13.1528 116.361 13.1528 116.373 13.1487H117.162C117.304 13.1487 117.761 12.9958 117.761 12.6668C117.75 12.5134 117.694 12.4405 117.675 12.3483C116.92 10.8562 112.688 2.7601 111.539 0.500846H111.539ZM97.888 6.86326C96.8425 6.85276 95.218 6.85276 94.4265 6.85276V2.15285H97.8524C99.4069 2.19251 100.614 3.02376 100.614 4.50485C100.605 6.07518 99.414 6.84751 97.8886 6.86326H97.888ZM97.9105 0.458262H93.0713C92.9991 0.453522 92.9267 0.464854 92.8595 0.491414C92.7923 0.517975 92.7321 0.559082 92.6833 0.611679C92.6294 0.666979 92.5874 0.732328 92.5597 0.803865C92.532 0.875402 92.5191 0.951675 92.5219 1.02818V12.5828C92.5498 12.6721 92.4922 12.7683 92.6667 12.9737C92.831 13.1487 92.9954 13.1487 93.0666 13.1487H93.9049C93.9661 13.1487 94.1957 13.1487 94.3381 12.9177C94.4603 12.7269 94.414 12.6493 94.4271 12.5828V8.54735H97.5504C100.427 8.54151 102.513 7.00151 102.524 4.50485C102.513 1.99651 100.328 0.458262 97.9105 0.458262ZM77.9894 0.458262H77.2341C76.9849 0.446596 76.7119 0.685762 76.6419 0.843262C75.3781 2.72198 74.1252 4.60773 72.8831 6.50043C72.0068 5.1471 69.7759 1.75035 69.1256 0.793679C69.1256 0.681096 68.6889 0.394096 68.499 0.458262H67.8303C67.6998 0.458262 67.2417 0.458262 67.1492 0.940679C67.1575 1.10285 67.2192 1.18451 67.2417 1.23643C68.1834 2.66676 71.4295 7.62393 71.9368 8.36185V12.556C71.9469 12.6715 71.9095 12.787 72.0792 12.9725C72.2008 13.123 72.3865 13.1475 72.4809 13.1475H73.2178C73.3305 13.1475 73.4907 13.1475 73.6942 12.9725C73.8586 12.7526 73.8212 12.6342 73.8212 12.5117V8.36126C74.3255 7.63793 77.4583 2.88376 78.4777 1.29593C78.5163 1.18335 78.5679 1.14776 78.5821 0.940095C78.5489 0.482179 78.0552 0.457096 77.9906 0.457096L77.9894 0.458262ZM59.3985 11.4687H55.1959V7.57901H59.3646C61.1862 7.60585 62.1153 8.40326 62.1314 9.55476C62.078 10.8643 61.3956 11.3934 59.3991 11.4681L59.3985 11.4687ZM55.1965 2.14993H58.8437C60.5822 2.1966 61.4105 2.92751 61.4324 4.02418C61.3339 5.43001 60.9251 5.84885 59.151 5.92176H55.1965V2.15051V2.14993ZM62.1782 6.5751C62.908 6.0431 63.369 5.14768 63.3424 3.95185C63.3424 1.6961 61.2182 0.458846 58.7227 0.458846H53.887C53.801 0.458846 53.6224 0.458846 53.4438 0.597679C53.2687 0.733012 53.2687 0.936012 53.2687 1.05151V12.584C53.2687 12.7695 53.5755 13.1498 53.8443 13.1498H59.5355C62.2945 13.1498 64.0389 11.9453 64.0478 9.55651C64.0478 8.22826 63.318 7.12635 62.1788 6.57568L62.1782 6.5751ZM42.8534 6.83526H39.485V2.15285H42.937C44.5117 2.19251 45.696 3.10193 45.7257 4.58826C45.6687 5.89843 44.8209 6.81076 42.8528 6.8341L42.8534 6.83526ZM45.0991 8.10693C46.554 7.48685 47.5899 6.25193 47.5899 4.55676C47.5615 2.37043 45.7648 0.458262 42.9839 0.458262H38.1381C38.0662 0.45265 37.9938 0.463591 37.9269 0.490219C37.86 0.516847 37.8002 0.558431 37.7525 0.611679C37.616 0.751679 37.6018 0.897512 37.6018 1.02818V12.5828C37.6018 12.6721 37.5685 12.7683 37.6955 12.9387C37.8605 13.1487 38.0764 13.1487 38.1625 13.1487H38.9528C39.024 13.1487 39.1842 13.1487 39.3663 12.9737C39.5265 12.7683 39.4743 12.6721 39.4933 12.5828V8.51001H43.1156L46.4051 12.857C46.5059 12.9853 46.7433 13.1487 46.9569 13.1487H47.7531C47.8374 13.1487 48.3832 13.0285 48.3832 12.6435C48.3921 12.4685 48.2527 12.241 48.2082 12.1914C47.2197 10.8947 45.7559 8.94926 45.0968 8.10576L45.0991 8.10693ZM24.11 8.63543C24.6659 7.53001 25.9463 5.05201 26.8179 3.30201C26.8179 3.29618 26.8221 3.29268 26.8221 3.27868C26.8262 3.29618 26.8375 3.30201 26.8458 3.31718C27.7317 5.04735 28.9557 7.52885 29.5301 8.63485H24.11V8.63543ZM27.3513 0.500846C27.3513 0.490346 27.1953 0.139179 26.8268 0.153762C26.4886 0.139762 26.2869 0.500846 26.2869 0.500846C25.124 2.70876 20.8656 11.0008 20.1892 12.3285C20.1358 12.3892 20.0706 12.4726 20.0706 12.6727C20.1358 13.1487 20.6461 13.1487 20.7351 13.1487H21.37C21.6726 13.1988 22.0262 12.8716 22.0677 12.7415L23.2817 10.2868H30.3275L31.5895 12.7911C31.6014 12.9037 31.9455 13.1528 32.1413 13.1528C32.1532 13.1528 32.1769 13.1528 32.187 13.1487H32.9922C33.1274 13.1487 33.5736 12.9958 33.5736 12.6668C33.5736 12.5134 33.5321 12.4405 33.4823 12.3483C32.7519 10.8562 28.5273 2.75951 27.3513 0.500846ZM17.6355 0.458262H16.9989C16.841 0.408679 16.3462 0.631512 16.3462 0.839179L12.9802 9.53201L9.7068 0.773845C9.64746 0.496179 9.19653 0.402846 9.16271 0.426179H9.11168C8.94318 0.371346 8.58599 0.653679 8.58599 0.782012L5.41581 9.5396C4.26258 6.66634 3.11251 3.79187 1.96558 0.916179C1.92523 0.723679 1.64518 0.432012 1.34673 0.458262H0.526152C0.472752 0.458262 0.395619 0.449512 0.217619 0.524179C0.0526722 0.617512 -0.00903447 0.839179 0.00105219 0.926679C0.00105219 1.07076 0.0485189 1.13493 0.0692855 1.23585L4.84384 13.0775C5.0248 13.361 5.2924 13.4158 5.37784 13.4158H5.41581C5.41581 13.4158 5.84598 13.4415 5.97533 13.0425C7.02245 10.2253 8.08057 7.41207 9.14966 4.60285C9.86878 6.55118 11.3996 10.68 12.3026 13.046C12.362 13.3289 12.8307 13.4269 12.8817 13.4158C12.9185 13.4275 13.3878 13.3283 13.4306 13.06C15.0314 9.11668 16.9478 4.36601 18.1861 1.23585C18.2182 1.13493 18.2336 1.0976 18.2466 0.940679C18.2466 0.524179 17.6865 0.458262 17.6355 0.458262Z" fill="#A4866B"/>
</g>
<defs>
<clipPath id="clip0_2354_3393">
<rect width="178" height="14" fill="white"/>
</clipPath>
</defs>
</svg>
