<svg width="75" height="20" viewBox="0 0 75 20" fill="none" xmlns="http://www.w3.org/2000/svg">
<g clip-path="url(#clip0_2354_3347)">
<mask id="mask0_2354_3347" style="mask-type:luminance" maskUnits="userSpaceOnUse" x="0" y="0" width="23" height="20">
<path d="M0 0H7.13561L11.3285 6.74413L15.5257 0H22.6224L14.5401 11.6207V20H8.10142V11.6207L0 0Z" fill="white"/>
</mask>
<g mask="url(#mask0_2354_3347)">
<mask id="mask1_2354_3347" style="mask-type:luminance" maskUnits="userSpaceOnUse" x="0" y="-1" width="76" height="21">
<path d="M0 20H75.0057V-0.0283203H0V20Z" fill="white"/>
</mask>
<g mask="url(#mask1_2354_3347)">
<path d="M-0.184692 -0.177979H22.8071V20.1772H-0.184692V-0.177979Z" fill="#A4866B"/>
</g>
</g>
<mask id="mask2_2354_3347" style="mask-type:luminance" maskUnits="userSpaceOnUse" x="24" y="0" width="18" height="21">
<path d="M24.0811 0H41.2999V4.92827H30.5218V7.77861H39.9273V12.2862H30.524V15.1365H41.6119V20.0007H24.0832V0.000673491" fill="white"/>
</mask>
<g mask="url(#mask2_2354_3347)">
<mask id="mask3_2354_3347" style="mask-type:luminance" maskUnits="userSpaceOnUse" x="0" y="-1" width="76" height="21">
<path d="M0 20H75.0057V-0.0283203H0V20Z" fill="white"/>
</mask>
<g mask="url(#mask3_2354_3347)">
<path d="M23.8967 -0.177979H41.7977V20.1772H23.8967V-0.177979Z" fill="#A4866B"/>
</g>
</g>
<mask id="mask4_2354_3347" style="mask-type:luminance" maskUnits="userSpaceOnUse" x="43" y="-1" width="21" height="21">
<path d="M43.7579 -1.2628e-05H63.2862V4.92687H56.7343V19.9979H50.3077V4.92893H43.7559V-0.0020752" fill="white"/>
</mask>
<g mask="url(#mask4_2354_3347)">
<mask id="mask5_2354_3347" style="mask-type:luminance" maskUnits="userSpaceOnUse" x="0" y="-1" width="76" height="21">
<path d="M0 20H75.0057V-0.0283203H0V20Z" fill="white"/>
</mask>
<g mask="url(#mask5_2354_3347)">
<path d="M43.5732 -0.177734H63.4737V20.1774H43.5732V-0.177734Z" fill="#A4866B"/>
</g>
</g>
<mask id="mask6_2354_3347" style="mask-type:luminance" maskUnits="userSpaceOnUse" x="65" y="0" width="8" height="20">
<path d="M65.6108 0H72.0495V20H65.6108L65.6066 0" fill="white"/>
</mask>
<g mask="url(#mask6_2354_3347)">
<mask id="mask7_2354_3347" style="mask-type:luminance" maskUnits="userSpaceOnUse" x="0" y="-1" width="76" height="21">
<path d="M0 20H75.0057V-0.0283203H0V20Z" fill="white"/>
</mask>
<g mask="url(#mask7_2354_3347)">
<path d="M65.4269 -0.177979H72.2377V20.1772H65.4269V-0.177979Z" fill="#A4866B"/>
</g>
</g>
<mask id="mask8_2354_3347" style="mask-type:luminance" maskUnits="userSpaceOnUse" x="72" y="0" width="4" height="3">
<path fill-rule="evenodd" clip-rule="evenodd" d="M73.8949 1.08175C73.9395 1.08175 73.9813 1.08176 74.0209 1.07624C74.0572 1.07334 74.0928 1.06473 74.1263 1.05073C74.1566 1.03778 74.1827 1.01673 74.2013 0.990032C74.2213 0.95635 74.231 0.917901 74.2296 0.879033C74.2315 0.845147 74.223 0.811468 74.2049 0.782471C74.1898 0.759014 74.1678 0.740494 74.1418 0.729349C74.1135 0.715968 74.0832 0.70735 74.052 0.703841C74.0189 0.700247 73.9856 0.698621 73.9522 0.699L73.6911 0.703841V1.08521L73.8949 1.08175ZM73.9862 0.54658C74.1033 0.535627 74.2207 0.563612 74.3195 0.625926C74.357 0.657289 74.3862 0.696927 74.4048 0.741556C74.4234 0.786185 74.4308 0.834474 74.4263 0.882442C74.4295 0.926955 74.4224 0.971623 74.4056 1.01314C74.3888 1.05466 74.3628 1.092 74.3293 1.12246C74.2612 1.17575 74.1786 1.20835 74.0916 1.21624L74.4496 1.73971L74.2373 1.74384L73.8963 1.2335L73.684 1.23762V1.75419H73.4874L73.4952 0.553484L73.9862 0.54658ZM73.0855 1.51211C73.1279 1.61547 73.1914 1.70935 73.2722 1.78799C73.353 1.8663 73.4493 1.92775 73.5553 1.96866C73.6678 2.01202 73.7881 2.03267 73.909 2.02936C74.0308 2.02805 74.151 2.00319 74.2628 1.95624C74.3688 1.9107 74.4648 1.84587 74.5459 1.76522C74.627 1.68363 74.6914 1.58766 74.7355 1.48248C74.7823 1.3706 74.8064 1.25087 74.8063 1.13003C74.8076 1.01194 74.785 0.894758 74.7398 0.785207C74.6978 0.682121 74.635 0.588334 74.5551 0.50937C74.4737 0.432169 74.3775 0.371246 74.2721 0.330053C74.1611 0.286729 74.042 0.266275 73.9225 0.270028C73.8006 0.271095 73.6802 0.296464 73.5687 0.344533C73.4631 0.389665 73.3671 0.453759 73.2857 0.533489C73.2042 0.613881 73.1395 0.708991 73.0953 0.813493C73.049 0.922877 73.025 1.03999 73.0246 1.15832C73.0209 1.27878 73.0416 1.39946 73.0855 1.51211ZM72.9122 0.760372C72.9703 0.63722 73.0514 0.525677 73.1513 0.431413C73.2529 0.33722 73.3713 0.261984 73.5008 0.209372C73.6352 0.154004 73.7794 0.124471 73.9254 0.122449C74.0685 0.118748 74.211 0.142196 74.345 0.19144C74.4718 0.238564 74.5882 0.30877 74.6881 0.398328C74.7863 0.48908 74.8652 0.597815 74.9202 0.718321C74.9775 0.845133 75.0059 0.982518 75.0036 1.12107C75.004 1.26357 74.9737 1.40458 74.9145 1.53489C74.8574 1.65852 74.7773 1.77075 74.6782 1.86591C74.5781 1.96088 74.4602 2.03605 74.3308 2.08728C74.1978 2.14157 74.0554 2.17061 73.9112 2.17281C73.7681 2.17603 73.6257 2.1526 73.4916 2.10382C73.363 2.0581 73.2452 1.98776 73.1449 1.89693C73.0456 1.80588 72.9659 1.69639 72.9107 1.57488C72.8536 1.44557 72.8252 1.30598 72.8273 1.16522C72.8274 1.02545 72.8578 0.887262 72.9164 0.759698L72.9122 0.760372Z" fill="white"/>
</mask>
<g mask="url(#mask8_2354_3347)">
<mask id="mask9_2354_3347" style="mask-type:luminance" maskUnits="userSpaceOnUse" x="0" y="-1" width="76" height="21">
<path d="M0 20H75.0057V-0.0283203H0V20Z" fill="white"/>
</mask>
<g mask="url(#mask9_2354_3347)">
<path d="M72.6387 -0.0566406H75.1858V2.35303H72.6387V-0.0566406Z" fill="#A4866B"/>
</g>
</g>
</g>
<defs>
<clipPath id="clip0_2354_3347">
<rect width="75" height="20" fill="white"/>
</clipPath>
</defs>
</svg>
