<svg width="89" height="28" viewBox="0 0 89 28" fill="none" xmlns="http://www.w3.org/2000/svg">
<g clip-path="url(#clip0_2354_3344)">
<path d="M50.4158 7.66287C50.4671 7.66287 50.5312 7.66287 50.5824 7.65018C51.4285 7.56137 52.1848 6.87628 52.313 6.02626C52.4412 5.18892 51.9028 4.49114 51.0824 4.40234C51.0311 4.40234 50.967 4.38965 50.9157 4.38965C50.8645 4.38965 50.8004 4.38965 50.7491 4.40234C49.9031 4.49114 49.1468 5.17624 49.0186 6.02626C48.9545 6.4703 49.0698 6.8636 49.3134 7.16808C49.5698 7.47257 49.9543 7.66287 50.4158 7.66287Z" fill="#A4866B"/>
<path d="M89 21.2886C89 19.0557 87.8976 17.0131 86.9234 15.2116C86.0902 13.6765 85.3467 12.2809 85.539 11.2406C85.68 10.4921 86.2184 10.0607 87.0516 10.01C87.0772 10.01 87.1029 9.99729 87.1285 9.99729C87.167 9.9846 87.2054 9.95923 87.2439 9.93386C87.2823 9.90848 87.308 9.87042 87.3208 9.83236C87.3208 9.81967 87.3336 9.81967 87.3336 9.80699L87.7438 8.75397C87.7822 8.63979 87.7951 8.56367 87.7566 8.48755C87.731 8.4368 87.6925 8.38605 87.6284 8.33531C87.5515 8.27187 87.4233 8.22112 87.2567 8.17038C87.0259 8.09425 86.7311 8.04351 86.4619 8.04351C85.257 8.04351 83.7828 8.4368 82.501 11.5958C82.4497 11.7227 79.9757 18.0662 79.8988 18.2692C79.5911 19.0177 78.9374 19.9184 77.5529 19.9184C76.9505 19.9184 76.4634 19.6901 76.1942 19.3095C76.1429 19.2334 76.1044 19.1572 76.066 19.0811C75.9634 18.8274 75.925 18.5229 75.9891 18.193C76.0147 18.0788 76.0403 17.952 76.0788 17.8251C76.1429 17.6094 76.2326 17.3684 76.3352 17.1273C77.2838 14.7295 80.6551 6.19122 81.6934 3.56503C81.8216 3.23517 81.6421 2.96874 81.2832 2.96874H80.091C79.9629 2.96874 79.8219 3.0068 79.7065 3.07024C79.4886 3.17173 79.3091 3.36204 79.2194 3.56503C78.7579 4.71954 78.1042 6.39421 77.4119 8.15769C76.8736 9.51519 76.3224 10.9234 75.8096 12.2048C75.6558 11.9511 75.4763 11.71 75.284 11.4817C75.0789 11.2533 74.861 11.0376 74.6303 10.8473C73.6304 10.0354 72.3614 9.59131 70.9641 9.59131C69.2465 9.59131 67.5928 10.2764 66.2982 11.3928C66.2469 11.4309 66.2084 11.4817 66.1572 11.5197C66.1187 11.5451 66.0931 11.5832 66.0546 11.6085C65.2086 12.3951 64.542 13.372 64.1318 14.4504C64.1318 14.4631 64.119 14.4758 64.119 14.5011C64.0677 14.6407 64.0293 14.7803 63.978 14.9325C63.9011 15.1989 63.837 15.4653 63.7985 15.7445C63.7601 15.9982 63.7344 16.2519 63.7216 16.5057C63.696 17.2415 63.8113 17.9647 64.0421 18.6244C63.9267 18.8147 63.7729 18.9923 63.6062 19.1572C63.1319 19.6013 62.5038 19.8931 61.8501 19.9438C61.786 19.9438 61.7347 19.9438 61.6706 19.9438C61.4142 19.9438 61.1707 19.8931 60.9528 19.817C60.6836 19.7155 60.4528 19.5505 60.299 19.3349C60.0042 18.9162 60.0042 18.3072 60.2734 17.6094C60.3375 17.4318 60.7477 16.3534 61.1194 15.3892C61.4014 14.6407 61.6578 13.9429 61.7091 13.8034C61.7347 13.7272 61.786 13.6131 61.8244 13.4735C61.8885 13.2071 61.927 12.8392 61.7475 12.4585C61.6706 12.3063 61.5809 12.1794 61.4783 12.0653C61.2732 11.8496 61.004 11.7227 60.7477 11.6212C60.6451 11.5832 60.5426 11.5451 60.44 11.5197C60.2606 11.469 60.0683 11.3928 59.8504 11.304C59.8375 11.304 59.8375 11.2914 59.8247 11.2914C59.4658 11.1391 57.7353 10.3398 57.7353 8.81741C57.7353 8.77935 57.7353 8.74129 57.7353 8.71591C57.7353 8.70323 57.7353 8.69054 57.7353 8.67785C57.7353 8.66516 57.7353 8.63979 57.7353 8.6271C57.7096 8.39874 57.6327 8.25918 57.5302 8.18306C57.5174 8.18306 57.5174 8.17038 57.5046 8.17038C57.5046 8.17038 57.5046 8.17038 57.4917 8.17038C57.4789 8.15769 57.4661 8.15769 57.4533 8.145C57.4533 8.145 57.4533 8.145 57.4405 8.145C57.4405 8.145 57.4405 8.145 57.4276 8.145C57.4148 8.145 57.4148 8.13231 57.402 8.13231C57.3379 8.10694 57.2738 8.09425 57.1969 8.09425H56.0176C55.774 8.09425 55.5048 8.22112 55.3254 8.41143C55.2485 8.48755 55.1844 8.58904 55.1459 8.69054C54.8895 9.33757 54.5819 10.1115 54.2614 10.9361C53.1334 13.8034 51.7874 17.2415 51.4029 18.2184C51.39 18.2565 51.3772 18.2945 51.3644 18.3326C51.0568 19.0811 50.403 19.9819 49.0058 19.9819C48.4033 19.9819 47.9034 19.7535 47.647 19.3729C47.4932 19.1445 47.4163 18.8527 47.4291 18.5102C47.4419 18.2438 47.506 17.952 47.6214 17.6475C47.8649 17.0131 48.3905 15.6937 48.9417 14.2982C49.4672 12.966 50.0184 11.5451 50.403 10.5809C50.5312 10.251 50.3517 9.9846 49.9928 9.9846H48.8007H48.6853C48.6084 9.9846 48.5187 9.99729 48.4289 10.0227C48.4161 10.0227 48.4161 10.0227 48.4033 10.0227C48.1213 10.0988 47.8393 10.2891 47.6726 10.4921C47.0573 11.2279 46.2626 11.8242 45.3909 12.2556C44.5192 12.6869 43.5835 12.966 42.6862 13.0675C42.558 12.7377 42.3913 12.4078 42.1862 12.1033C42.1734 12.0906 42.1734 12.0779 42.1606 12.0653C42.0324 11.875 41.9042 11.6973 41.7504 11.5197C40.6865 10.3018 39.161 9.62937 37.4305 9.62937C36.5076 9.62937 35.6103 9.83236 34.7642 10.1876C35.1873 9.10921 35.6103 8.01813 36.0076 6.99049C36.4948 5.73449 36.9562 4.56729 37.328 3.60309C37.3921 3.45085 37.3792 3.32398 37.328 3.2098C37.2639 3.08293 37.1229 3.0068 36.9306 3.0068H36.9178H35.7384H35.7256C35.5846 3.0068 35.4308 3.05755 35.2898 3.13367C35.1232 3.22248 34.9822 3.34935 34.9052 3.50159C34.8924 3.53965 34.8668 3.56503 34.854 3.60309C33.3285 7.44722 30.893 13.6765 29.7393 16.6579C29.4188 17.4699 29.2009 18.0535 29.1112 18.2692C28.8036 19.0177 28.1498 19.9184 26.7654 19.9184C26.6372 19.9184 26.5218 19.9058 26.4193 19.8931C25.9834 19.817 25.6117 19.6266 25.4066 19.3095C25.3682 19.246 25.3297 19.1826 25.2912 19.1065C25.1759 18.8527 25.1374 18.5356 25.2015 18.193C25.2271 18.0281 25.3169 17.7617 25.4194 17.4952C25.5604 17.1146 25.7014 16.7467 25.7014 16.7467C25.7014 16.7467 26.2142 15.4527 26.9448 13.575C27.0218 13.372 27.1115 13.1563 27.2012 12.928C27.214 12.9026 27.2269 12.8772 27.2269 12.8518C28.3549 9.9846 29.8675 6.1151 30.9571 3.32398C31.3929 2.19484 31.7647 1.24333 32.021 0.60898C32.1492 0.27912 31.9698 0.0126953 31.6108 0.0126953H30.4187C30.0598 0.0126953 29.6752 0.27912 29.547 0.60898C29.406 0.964213 28.1498 4.18669 26.7397 7.78977C24.9195 12.4332 22.8557 17.7109 22.6378 18.2818C22.5865 18.396 22.5352 18.5102 22.4711 18.6244C22.2789 18.9923 21.984 19.3475 21.5738 19.6013C21.2405 19.8043 20.8047 19.9311 20.2791 19.9438C19.792 19.9438 19.3818 19.8043 19.0998 19.5378C19.0357 19.4744 18.9716 19.411 18.9075 19.3349C18.7153 19.0431 18.6383 18.6751 18.7153 18.2438V18.2311C18.7794 17.8632 19.2793 16.5691 19.2793 16.5437C19.5997 15.7318 19.9715 14.7676 20.3689 13.7399C21.6892 10.3779 23.3043 6.21659 24.3427 3.5904C24.3683 3.51428 24.3811 3.43816 24.3811 3.36204C24.3683 3.26054 24.3298 3.15905 24.2529 3.09561C24.176 3.03218 24.0735 2.99412 23.9325 2.99412H22.7403C22.6121 2.99412 22.4711 3.03218 22.3429 3.09561C22.1635 3.18442 22.0097 3.32398 21.9199 3.48891C21.9071 3.51428 21.8815 3.55234 21.8687 3.57772C21.561 4.35162 21.2277 5.21433 20.8688 6.12778C20.4842 7.11736 20.074 8.17037 19.651 9.22339C18.0102 13.4101 16.3823 17.6094 16.1131 18.2818C16.0233 18.4975 15.908 18.7132 15.767 18.9289C15.3824 19.4744 14.7671 19.9311 13.7544 19.9311C13.3827 19.9311 13.0494 19.8423 12.7802 19.6901C12.6264 19.5886 12.4854 19.4744 12.3957 19.3222C12.3316 19.2207 12.2803 19.1192 12.2418 19.005C12.1649 18.7766 12.1521 18.5102 12.2034 18.2184C12.2675 17.8632 12.6264 16.937 12.6905 16.7975C12.6905 16.7848 12.7033 16.7721 12.7033 16.7721L15.1517 10.5301C15.2799 10.2003 15.1004 9.93386 14.7415 9.93386H13.5493C13.3314 9.93386 13.1007 10.0354 12.9212 10.1876C12.9084 10.1876 12.9084 10.2003 12.9084 10.2003C12.8059 10.2891 12.7289 10.4033 12.6905 10.5175L12.4469 11.1518L12.0624 12.1414C11.9855 12.0272 11.9086 11.913 11.8316 11.7988C11.7547 11.6846 11.665 11.5832 11.5753 11.4817C11.1907 11.0376 10.7292 10.657 10.2293 10.3652C9.37045 9.85773 8.35778 9.59131 7.26819 9.59131C4.58909 9.59131 2.05099 11.266 0.807584 13.6257C0.46148 14.2855 0.217925 14.9959 0.102557 15.7318C-0.166635 17.4572 0.282019 19.0938 1.35879 20.3244C1.69207 20.705 2.06381 21.0349 2.48683 21.3013C2.56374 21.3521 2.65347 21.4028 2.7432 21.4536C3.60205 21.9484 4.60191 22.2148 5.67868 22.2148C7.4092 22.2148 9.08844 21.5043 10.3959 20.3752C10.4344 20.4513 10.4857 20.5274 10.537 20.6035C10.5626 20.6416 10.601 20.6923 10.6267 20.7304C10.6267 20.7431 10.6395 20.7431 10.6395 20.7558C10.6651 20.7938 10.7036 20.8319 10.7292 20.87C10.7549 20.8953 10.7805 20.9207 10.7933 20.9461C10.8061 20.9715 10.8318 20.9841 10.8574 21.0095C10.8959 21.0476 10.9343 21.0856 10.96 21.1237C10.9728 21.1364 10.9856 21.1491 10.9984 21.1618C11.0497 21.1998 11.0882 21.2506 11.1394 21.2886C11.1394 21.2886 11.1394 21.2886 11.1522 21.3013C11.5881 21.6692 12.1393 21.961 12.7802 22.1133C12.793 22.1133 12.8059 22.126 12.8187 22.126C12.8828 22.1387 12.9469 22.1513 13.011 22.164C13.0366 22.164 13.0622 22.1767 13.1007 22.1767C13.152 22.1894 13.2032 22.1894 13.2673 22.2021C13.3186 22.2021 13.3571 22.2148 13.4083 22.2148C13.4468 22.2148 13.4852 22.2275 13.5365 22.2275C13.6263 22.2275 13.716 22.2402 13.8185 22.2402C14.4851 22.2402 15.1132 22.1133 15.6901 21.8722C15.908 21.7834 16.1131 21.6819 16.3054 21.5551C16.3694 21.517 16.4335 21.4789 16.4976 21.4282C16.754 21.2506 16.9976 21.0603 17.2155 20.8319C17.2924 20.9334 17.3821 21.0222 17.4719 21.111C18.0615 21.7073 18.8563 22.0752 19.7664 22.1894C19.792 22.1894 19.8305 22.2021 19.8561 22.2021C19.8818 22.2021 19.9074 22.2021 19.933 22.2021C19.9843 22.2021 20.0356 22.2148 20.0869 22.2148C20.1125 22.2148 20.1381 22.2148 20.151 22.2148C20.2022 22.2148 20.2663 22.2148 20.3176 22.2148C21.6507 22.2148 22.8301 21.72 23.7017 20.8319C24.035 21.2379 24.458 21.5677 24.9451 21.8088C25.4963 22.0752 26.1245 22.2148 26.791 22.2148C27.1371 22.2148 27.4704 22.1767 27.7909 22.1133C29.1881 21.8342 30.3418 20.9588 31.0468 19.6393C31.0853 19.7028 31.1237 19.7535 31.1622 19.817C31.2135 19.8931 31.2647 19.9692 31.316 20.0453C31.3929 20.1468 31.4698 20.2356 31.5467 20.3371C32.6107 21.5551 34.1361 22.2275 35.8666 22.2275C38.2253 22.2275 40.4814 20.9207 41.8273 19.0177C42.4426 18.1423 42.8656 17.1527 43.0323 16.0997C43.0707 15.8333 43.0964 15.5668 43.1092 15.3004C43.3399 15.275 43.5707 15.237 43.7886 15.1862C44.7756 14.9959 45.6986 14.6788 46.519 14.2474C46.4933 14.3108 46.4677 14.387 46.442 14.4504C46.0575 15.4527 45.7114 16.3154 45.5319 16.7848C44.9679 18.193 45.0576 19.5632 45.7883 20.6289C46.0575 21.0222 46.4036 21.3521 46.801 21.6058C47.4419 22.0118 48.211 22.2402 49.057 22.2402C51.0952 22.2402 52.7745 21.0856 53.5692 19.1319C53.6718 18.8781 53.8769 18.3453 54.1461 17.6475C54.7101 16.2139 55.5561 14.0571 56.3252 12.1033C56.3893 11.9257 56.4662 11.7481 56.5303 11.5832C57.1969 12.4078 58.0942 13.0295 58.9659 13.3974C59.0172 13.4228 59.0556 13.4354 59.1069 13.4608C59.2094 13.4989 59.312 13.5369 59.4017 13.575C58.9659 14.7422 58.2737 16.5945 58.1839 16.7975C57.8378 17.6729 57.7353 18.5229 57.8891 19.2968C57.9788 19.7789 58.1711 20.2356 58.4403 20.6416C58.6198 20.8953 58.8249 21.1237 59.0556 21.3267C59.6965 21.8722 60.5298 22.2021 61.4527 22.2528C61.5424 22.2528 61.6193 22.2655 61.7091 22.2655C61.8501 22.2655 61.9911 22.2528 62.1321 22.2402C62.1577 22.2402 62.1962 22.2402 62.2218 22.2275C62.2346 22.2275 62.2475 22.2275 62.2603 22.2275C62.8499 22.164 63.414 21.9864 63.9395 21.7327C64.4779 21.4663 64.965 21.111 65.3752 20.6924C66.1828 21.4789 67.2211 21.9864 68.3876 22.1767C68.7081 22.2275 69.0414 22.2528 69.3875 22.2528C69.8233 22.2528 70.2591 22.2021 70.6821 22.126C71.8486 21.8976 72.951 21.3521 73.874 20.6035C73.9637 20.5401 74.0406 20.464 74.1175 20.3879C74.1688 20.4767 74.2201 20.5655 74.2714 20.6416C74.72 21.2886 75.361 21.7581 76.1173 22.0245C76.1557 22.0372 76.1942 22.0498 76.2198 22.0625C76.2583 22.0752 76.3095 22.0879 76.348 22.1006C76.3993 22.1133 76.4377 22.126 76.489 22.1387C76.5275 22.1513 76.5659 22.1513 76.6044 22.164C76.6556 22.1767 76.6941 22.1894 76.7454 22.1894C76.7838 22.2021 76.8223 22.2021 76.8607 22.2148C76.912 22.2275 76.9505 22.2275 77.0017 22.2275C77.053 22.2275 77.1043 22.2402 77.1556 22.2402C77.194 22.2402 77.2325 22.2528 77.2709 22.2528C77.3607 22.2528 77.4504 22.2655 77.5529 22.2655C79.5911 22.2655 81.2704 21.111 82.0651 19.1572C82.1036 19.0431 82.8471 17.2035 83.4495 15.681C83.629 15.2243 83.7956 14.7929 83.9238 14.4504C83.9879 14.5899 84.0648 14.7422 84.1289 14.8817C84.3725 15.3639 84.6289 15.8586 84.898 16.3661C85.116 16.7721 85.3467 17.1908 85.5518 17.6094C86.1799 18.8527 86.7055 20.1214 86.7055 21.3648C86.7055 25.0313 84.193 25.6783 83.4239 25.7925C82.9111 25.8686 82.5266 26.2619 82.4497 26.744C82.4369 26.8582 82.424 26.9724 82.4497 27.0865C82.4497 27.1246 82.4625 27.1627 82.4753 27.188C82.6035 27.6955 83.065 28.0634 83.5905 28.0634C83.6162 28.0634 83.6418 28.0634 83.6803 28.0634C83.7059 28.0634 83.7315 28.0634 83.77 28.0634C84.3725 27.9746 85.0134 27.7843 85.6159 27.4925C87.3977 26.503 89 24.5745 89 21.2886ZM74.2329 15.7191C74.015 17.2161 73.0536 18.5356 71.7974 19.2841C71.7845 19.2968 71.7589 19.3095 71.7461 19.3095C71.7461 19.3095 71.7333 19.3095 71.7333 19.3222C71.0667 19.7028 70.3232 19.9184 69.5541 19.9184C69.1952 19.9184 68.8491 19.8677 68.5286 19.7662C67.9646 19.5886 67.4647 19.2714 67.0929 18.8274C66.7212 18.3833 66.4904 17.8378 66.4007 17.2288V17.2161C66.3494 16.8482 66.3494 16.4676 66.4135 16.0743C66.5033 15.4907 66.6955 14.9325 66.9904 14.425C67.3749 13.7399 67.9133 13.1563 68.5414 12.7123C69.2977 12.1921 70.1822 11.875 71.0923 11.875C71.7076 11.875 72.2717 12.0145 72.7459 12.2936C73.0536 12.4712 73.3228 12.6996 73.5535 12.966C73.6689 13.1056 73.7714 13.2451 73.8484 13.3974C74.1432 13.9049 74.2842 14.5011 74.2842 15.1355C74.2842 15.3258 74.2714 15.5161 74.2329 15.7191ZM34.8155 19.8043C34.1874 19.6393 33.649 19.3095 33.2516 18.8147C32.6492 18.0915 32.4056 17.1146 32.5594 16.0616V16.0489C32.5979 15.7825 32.662 15.5542 32.7261 15.3639C32.8158 15.1355 32.9055 14.8944 33.0081 14.6534C33.0209 14.6153 33.0465 14.5899 33.0593 14.5519C33.0978 14.4885 33.1234 14.425 33.1619 14.3616C33.1747 14.3362 33.1875 14.3235 33.2004 14.2982C33.4824 13.8287 33.8285 13.4101 34.2258 13.0548C35.0719 12.319 36.1358 11.8623 37.2382 11.8623C37.7382 11.8623 38.2125 11.9638 38.6227 12.1414C39.0457 12.3317 39.4046 12.5981 39.6994 12.9533C40.3019 13.6765 40.5455 14.6534 40.3916 15.7191C40.0455 18.0281 37.9433 19.9184 35.7 19.9184C35.3923 19.9184 35.0975 19.8804 34.8155 19.8043ZM5.80686 19.9184C4.79419 19.9184 3.92252 19.5252 3.33286 18.8274C3.26877 18.7513 3.21749 18.6751 3.16622 18.599C2.67911 17.9012 2.49965 17.0131 2.64065 16.0616C2.98676 13.7526 5.10184 11.8623 7.35792 11.8623C8.3706 11.8623 9.24227 12.2556 9.83193 12.9533C10.4344 13.6765 10.6908 14.6534 10.5241 15.7191C10.4985 15.8967 10.46 16.0743 10.4088 16.2519C9.84474 18.3072 7.88349 19.9184 5.80686 19.9184Z" fill="#A4866B"/>
</g>
<defs>
<clipPath id="clip0_2354_3344">
<rect width="89" height="28" fill="white"/>
</clipPath>
</defs>
</svg>
